<svg viewBox="0 0 24 24" xml:space="preserve" xmlns="http://www.w3.org/2000/svg"><path d="M7 10.5a1 1 0 0 0-1-1h0a1 1 0 0 0-1 1v2a1 1 0 0 0 1 1h0a1 1 0 0 0 1-1V12h-.5" fill="none" stroke="#ffffff" stroke-linecap="round" stroke-linejoin="round" stroke-miterlimit="10" class="stroke-303c42"></path><g fill="none" stroke="#ffffff" stroke-linecap="round" stroke-linejoin="round" stroke-miterlimit="10" class="stroke-303c42"><path d="M11 9.5H9v4h2M9 11.5h1.5"></path></g><g fill="none" stroke="#ffffff" stroke-linecap="round" stroke-linejoin="round" stroke-miterlimit="10" class="stroke-303c42"><path d="M15 9.5h-2v4h2M13 11.5h1.5"></path></g><g fill="none" stroke="#ffffff" stroke-linecap="round" stroke-linejoin="round" stroke-miterlimit="10" class="stroke-303c42"><path d="M19 9.5v1a1 1 0 0 1-1 1h-1 1a1 1 0 0 1 1 1v1M17 9.5v4"></path></g><path d="M12 1.5C5.649 1.5.5 6.201.5 12c0 2.828 1.23 5.39 3.222 7.278L.5 22.5H12c6.351 0 11.5-4.701 11.5-10.5S18.351 1.5 12 1.5z" fill="none" stroke="#ffffff" stroke-linecap="round" stroke-linejoin="round" stroke-miterlimit="10" class="stroke-303c42"></path></svg>